<?xml version="1.0" encoding="UTF-8" standalone="no"?>
<svg
   xmlns:dc="http://purl.org/dc/elements/1.1/"
   xmlns:cc="http://creativecommons.org/ns#"
   xmlns:rdf="http://www.w3.org/1999/02/22-rdf-syntax-ns#"
   xmlns:svg="http://www.w3.org/2000/svg"
   xmlns="http://www.w3.org/2000/svg"
   xmlns:sodipodi="http://sodipodi.sourceforge.net/DTD/sodipodi-0.dtd"
   xmlns:inkscape="http://www.inkscape.org/namespaces/inkscape"
   viewBox="0 0 681.45776 236.88273"
   height="236.88274"
   width="681.45776"
   xml:space="preserve"
   id="svg304"
   version="1.1"
   sodipodi:docname="ConferenceLogo.svg"
   inkscape:version="0.92.5 (2060ec1f9f, 2020-04-08)"><sodipodi:namedview
     pagecolor="#ffffff"
     bordercolor="#666666"
     borderopacity="1"
     objecttolerance="10"
     gridtolerance="10"
     guidetolerance="10"
     inkscape:pageopacity="0"
     inkscape:pageshadow="2"
     inkscape:window-width="1920"
     inkscape:window-height="1015"
     id="namedview28"
     showgrid="false"
     fit-margin-left="0"
     fit-margin-top="0"
     fit-margin-right="0"
     fit-margin-bottom="0"
     inkscape:zoom="0.82393213"
     inkscape:cx="150.68937"
     inkscape:cy="60.252945"
     inkscape:window-x="1920"
     inkscape:window-y="292"
     inkscape:window-maximized="1"
     inkscape:current-layer="g314" /><metadata
     id="metadata310"><rdf:RDF><cc:Work
         rdf:about=""><dc:format>image/svg+xml</dc:format><dc:type
           rdf:resource="http://purl.org/dc/dcmitype/StillImage" /><dc:title></dc:title></cc:Work></rdf:RDF></metadata><defs
     id="defs308" /><g
     transform="matrix(1.3333333,0,0,-1.3333333,180.82976,237.99992)"
     id="g312"><g
       transform="scale(0.1)"
       id="g314"><path
         id="path338"
         style="fill:#de1d31;fill-opacity:1;fill-rule:nonzero;stroke:none"
         d="m 2600.46,1101.13 c 0,56.46 45.77,102.23 102.22,102.23 56.47,0 102.24,-45.77 102.24,-102.23 0,-56.46 -45.77,-102.224 -102.24,-102.224 -56.45,0 -102.22,45.764 -102.22,102.224"
         inkscape:connector-curvature="0" /><path
         id="path340"
         style="fill:#707a84;fill-opacity:1;fill-rule:nonzero;stroke:none"
         d="M 638.063,360.75 325.793,8.37891 H 599.094 L 788.066,239.531 C 728.531,266.98 677.191,308.871 638.063,360.75 Z m 2250.277,1421.5 c -127.6,-4.67 -270.77,-143.17 -270.77,-141.62 1.56,79.37 -57.57,155.62 -166.51,138.5 -108.91,-17.12 -245.86,-154.06 -247.41,-154.06 4.67,57.58 -33.52,125.25 -93.37,147.83 -85.43,32.24 -212.15,8.25 -376.06,-173.24 -128.93,-142.76 -456.43,-516.18 -579.78,-656.117 43.66,-25.875 81.86,-59.832 112.65,-100.008 l 391.92,484.325 c 0,0 227.09,297.77 351.68,326.78 103.13,24.01 119.2,-74.6 80.91,-166.51 -77.89,-186.93 -269.21,-497.95 -269.21,-497.95 0,0 267.66,347.01 312.78,404.59 45.13,57.57 270.77,340.79 370.36,241.2 97.06,-97.06 -194.51,-516.63 -194.51,-516.63 l 149.39,192.95 c 0,0 303.44,398.37 435.71,348.57 132.28,-49.79 -85.6,-413.93 -85.6,-412.37 0,0 130.49,99.46 200.75,312.78 32.13,97.55 4.67,225.64 -122.93,220.98"
         inkscape:connector-curvature="0" /><path
         id="path342"
         style="fill:#1f262f;fill-opacity:1;fill-rule:nonzero;stroke:none"
         d="m 0.0507813,792.637 c 0,85.75 69.1015187,158.187 172.3442187,158.187 54.121,0 99.914,-19.984 129.882,-50.777 30.813,30.793 75.762,50.777 129.887,50.777 104.082,0 169.856,-72.437 169.856,-158.187 l -0.051,-376.778 h -94.926 l 0.051,362.621 c 0,59.106 -29.957,91.579 -76.582,91.579 -45.809,0 -81.61,-32.473 -81.61,-91.579 l -0.047,-362.621 h -95.742 l 0.047,362.621 c 0,59.106 -35.797,91.579 -82.422,91.579 -45.808,0 -75.781,-32.473 -75.781,-91.579 L 94.9102,415.859 H 0.00390625 L 0.0507813,792.637"
         inkscape:connector-curvature="0" /><path
         id="path344"
         style="fill:#1f262f;fill-opacity:1;fill-rule:nonzero;stroke:none"
         d="m 1485.39,500.398 c 54.13,0 97.42,43.274 97.42,97.403 0,54.121 -43.29,97.41 -97.42,97.41 -54.1,0 -97.39,-43.289 -97.39,-97.41 0,-54.129 43.29,-97.403 97.39,-97.403 z m 96.6,441.27 h 95.75 V 601.129 c 0,-105.719 -85.77,-192.309 -192.35,-192.309 -105.73,0 -191.49,86.59 -191.49,192.309 0,106.57 80.77,192.348 184.83,192.348 44.97,0 81.61,-20.817 103.26,-39.149 v 187.34"
         inkscape:connector-curvature="0" /><path
         id="path346"
         style="fill:#1f262f;fill-opacity:1;fill-rule:nonzero;stroke:none"
         d="m 1051.74,599.891 c 0,55.371 -37.44,102.531 -98.06,102.531 -60.617,0 -98.02,-47.16 -98.02,-102.531 0,-55.371 37.403,-102.539 98.02,-102.539 60.62,0 98.06,47.168 98.06,102.539 z m 91.3,0 c 0,-104.032 -83.83,-186.352 -189.36,-186.352 -105.528,0 -189.332,82.32 -189.332,186.352 0,104.757 83.804,186.339 189.332,186.339 105.53,0 189.36,-81.582 189.36,-186.339"
         inkscape:connector-curvature="0" /><path
         id="path348"
         style="fill:#1f262f;fill-opacity:1;fill-rule:nonzero;stroke:none"
         d="m 2094.85,632.801 c -1.53,30.699 -29.96,71.847 -89.08,71.847 -57.64,0 -83.81,-40.386 -86.8,-71.847 z m 89.79,-31.41 c 0,-6.75 0,-20.2 -0.74,-33.692 h -264.93 c 6.71,-31.418 43.38,-71.84 99.51,-71.84 62.12,0 97.3,35.942 97.3,35.942 l 44.9,-67.371 c 0,0 -56.13,-50.891 -142.2,-50.891 -107.75,0 -190.82,82.32 -190.82,186.352 0,104.039 75.6,186.339 178.11,186.339 97.28,0 178.87,-75.57 178.87,-184.839"
         inkscape:connector-curvature="0" /><path
         id="path350"
         style="fill:#1f262f;fill-opacity:1;fill-rule:nonzero;stroke:none"
         d="m 2360.79,941.668 h 93.4 V 415.859 h -93.4 v 525.809"
         inkscape:connector-curvature="0" /><path
         id="path352"
         style="fill:#1f262f;fill-opacity:1;fill-rule:nonzero;stroke:none"
         d="m 3181.32,540.762 59.12,-59.883 c 0,0 -50.89,-67.34 -146.68,-67.34 -106.26,0 -190.83,82.32 -190.83,186.352 0,104.757 84.57,186.339 190.83,186.339 95.06,0 145.18,-65.871 145.18,-65.871 l -62.12,-55.371 c 0,0 -29.16,37.434 -83.06,37.434 -60.63,0 -99.52,-47.16 -99.52,-102.531 0,-55.371 38.89,-102.539 99.52,-102.539 60.61,0 87.56,43.41 87.56,43.41"
         inkscape:connector-curvature="0" /><path
         id="path354"
         style="fill:#1f262f;fill-opacity:1;fill-rule:nonzero;stroke:none"
         d="m 2653.74,785.938 h 94.17 V 415.859 h -94.17 v 370.079"
         inkscape:connector-curvature="0" /><path
         id="path356"
         style="fill:#1f262f;fill-opacity:1;fill-rule:nonzero;stroke:none"
         d="m 3562.5,497.352 c -60.62,0 -98.02,47.168 -98.02,102.539 0,55.371 37.4,102.531 98.02,102.531 60.62,0 98.05,-47.16 98.05,-102.531 0,-55.371 -37.43,-102.539 -98.05,-102.539 z m 98.05,288.586 v -26.176 c -28.53,16.738 -61.96,26.468 -98.05,26.468 -105.53,0 -189.33,-81.582 -189.33,-186.339 0,-104.032 83.8,-186.352 189.33,-186.352 36.09,0 69.52,9.82 98.05,26.652 v -24.57 h 94.16 v 370.317 h -94.16"
         inkscape:connector-curvature="0" /><g
         aria-label="14"
         transform="matrix(7.5000002,0,0,-7.5000002,-1425.6129,1464.2523)"
         style="font-style:normal;font-weight:normal;font-size:20px;line-height:125%;font-family:Sans;letter-spacing:0px;word-spacing:0px;fill:#707a84;fill-opacity:1;stroke:none;stroke-width:1px;stroke-linecap:butt;stroke-linejoin:miter;stroke-opacity:1"
         id="flowRoot30"><path
           d="m 63.158203,136.33594 q -7.6875,-0.75 -26.25,-0.75 -19.21875,0 -26.90625,0.75 -0.7499999,0 -0.7499999,-1.125 0,-0.9375 0.375,-2.53125 0.9374999,-3.65625 2.2499999,-3.46875 9.75,0 14.25,-4.21875 4.59375,-4.21875 7.875,-15.75 l 20.15625,-75.562503 q 0.9375,-3.09375 0.5625,-4.40625 -0.375,-1.40625 -2.53125,-0.65625 -12.09375,4.40625 -15.28125,5.625 -1.6875,0.5625 -2.25,-2.15625 -0.46875,-2.71875 1.6875,-3.46875 17.625,-6.75 37.96875,-19.96875 3.09375,-1.875 4.40625,-1.875 1.875,0 3.09375,1.3125 0.5625,0.75 0.5625,1.78125 0,0.75 -0.375,1.875 -2.71875,6.9375 -4.59375,15 l -22.125,82.312503 q -2.15625,6.375 -2.0625,10.59375 0,2.53125 0.75,4.40625 1.875,5.15625 11.15625,5.15625 1.5,0 0.46875,3.5625 -0.9375,3.5625 -2.4375,3.5625 z"
           style="font-style:italic;font-variant:normal;font-weight:600;font-stretch:normal;font-size:192px;font-family:Junicode;-inkscape-font-specification:'Junicode, Semi-Bold Italic';font-variant-ligatures:normal;font-variant-caps:normal;font-variant-numeric:normal;font-feature-settings:normal;text-align:start;writing-mode:lr-tb;text-anchor:start;fill:#707a84;fill-opacity:1"
           id="path4642" /><path
           d="m 164.68945,88.335937 h 11.53125 q 0.5625,0 0.5625,1.40625 0,1.5 -0.75,4.78125 -1.5,6.187503 -3.09375,6.281253 H 161.4082 l -5.53125,20.15625 q -0.5625,2.15625 -0.5625,3.65625 0,2.15625 1.125,3.09375 1.875,1.5 6.9375,1.5 1.5,0 0.5625,3.5625 -0.9375,3.5625 -2.53125,3.5625 -7.6875,-0.75 -22.03125,-0.75 -14.4375,0 -22.125,0.75 -1.5,0 -0.5625,-3.5625 0.9375,-3.5625 2.53125,-3.5625 6.9375,0 10.40625,-1.78125 3.5625,-1.78125 4.96875,-6.46875 l 5.53125,-20.15625 h -43.218747 -0.375 q -6.75,0 -6.65625,-4.031253 0,-4.78125 8.25,-12.84375 L 134.9707,48.023437 q 26.15625,-25.5 42.84375,-44.90625 2.15625,-1.6875 4.59375,-1.78125 1.5,0 3.1875,0.84375 3.09375,1.3125 3.28125,3.84375 0,0.9375 -0.5625,2.0625 l -78.09375,76.40625 q -3.84375,3.84375 -0.1875,3.84375 h 33.375 l 9.9375,-37.40625 q 0.5625,-2.15625 11.25,-2.15625 10.6875,0 10.125,2.15625 z"
           style="font-style:italic;font-variant:normal;font-weight:600;font-stretch:normal;font-size:192px;font-family:Junicode;-inkscape-font-specification:'Junicode, Semi-Bold Italic';font-variant-ligatures:normal;font-variant-caps:normal;font-variant-numeric:normal;font-feature-settings:normal;text-align:start;writing-mode:lr-tb;text-anchor:start;fill:#707a84;fill-opacity:1"
           id="path4644" /></g><g
         aria-label="th"
         transform="matrix(7.5000002,0,0,-7.5000002,24.773403,1955.8225)"
         style="font-style:normal;font-weight:normal;font-size:20px;line-height:125%;font-family:Sans;letter-spacing:0px;word-spacing:0px;fill:#707a84;fill-opacity:1;stroke:none;stroke-width:1px;stroke-linecap:butt;stroke-linejoin:miter;stroke-opacity:1"
         id="flowRoot30-1"><path
           d="m 25.991536,60.355162 -4.0625,14.166666 h 8.177083 l -0.885417,3.28125 h -8.124999 l -8.958334,30.729162 q -1.458333,4.94792 -1.458333,6.40625 0,0.88542 0.416667,1.35417 0.416666,0.46875 0.989583,0.46875 1.302083,0 3.4375,-1.82292 1.25,-1.04166 5.572917,-6.40625 l 1.71875,1.30209 q -4.791667,6.97916 -9.0625,9.84375 -2.916667,1.97916 -5.8854168,1.97916 -2.2916666,0 -3.7499999,-1.40625 -1.4583333,-1.45833 -1.4583333,-3.69791 0,-2.8125 1.6666666,-8.59375 L 13.022786,77.803078 H 5.158203 l 0.5208333,-2.03125 q 5.7291667,-1.5625 9.5312497,-4.635416 3.802083,-3.125 8.489583,-10.78125 z"
           style="font-style:italic;font-variant:normal;font-weight:normal;font-stretch:normal;font-size:106.66666412px;font-family:'Times New Roman';-inkscape-font-specification:'Times New Roman, Italic';font-variant-ligatures:normal;font-variant-caps:normal;font-variant-numeric:normal;font-feature-settings:normal;text-align:start;writing-mode:lr-tb;text-anchor:start;fill:#707a84;fill-opacity:1"
           id="path4637" /><path
           d="M 59.220702,46.344746 44.585285,96.917661 q 9.479167,-14.270833 14.791667,-18.958333 5.3125,-4.6875 10.156249,-4.6875 2.5,0 4.166667,1.71875 1.666667,1.71875 1.666667,4.583333 0,3.4375 -1.458334,8.333334 l -6.354166,21.822915 q -1.197917,3.95833 -1.197917,4.375 0,0.72917 0.416667,1.19792 0.46875,0.46875 1.041667,0.46875 0.677083,0 1.5625,-0.67709 2.968749,-2.29166 5.885416,-6.35416 l 1.614583,0.98958 q -1.770833,2.76042 -4.947916,6.09375 -3.125,3.28125 -5.416667,4.58333 -2.239583,1.25 -4.010416,1.25 -1.927084,0 -3.177084,-1.25 -1.197916,-1.19791 -1.197916,-3.125 0,-2.29166 1.822916,-8.54166 l 5.989584,-20.833335 q 1.145833,-3.90625 1.145833,-6.145834 0,-1.041666 -0.677083,-1.666666 -0.625,-0.625 -1.666667,-0.625 -1.510417,0 -3.4375,1.145833 -3.541667,2.1875 -8.177083,8.125 -1.25,1.614583 -8.333333,13.020832 -2.1875,3.64583 -3.59375,7.96875 l -3.333333,10.67708 h -7.8125 l 17.135416,-59.583328 1.822917,-6.458333 q 0,-1.354167 -1.145834,-2.395834 -1.09375,-1.041666 -2.708333,-1.041666 -0.9375,0 -2.864583,0.3125 l -1.09375,0.15625 v -2.03125 z"
           style="font-style:italic;font-variant:normal;font-weight:normal;font-stretch:normal;font-size:106.66666412px;font-family:'Times New Roman';-inkscape-font-specification:'Times New Roman, Italic';font-variant-ligatures:normal;font-variant-caps:normal;font-variant-numeric:normal;font-feature-settings:normal;text-align:start;writing-mode:lr-tb;text-anchor:start;fill:#707a84;fill-opacity:1"
           id="path4639" /></g></g></g></svg>