<?xml version="1.0" encoding="UTF-8" standalone="no"?>
<!-- Generator: Adobe Illustrator 18.1.1, SVG Export Plug-In . SVG Version: 6.00 Build 0)  -->

<svg
   version="1.1"
   id="Ebene_9_Kopie_2"
   x="0px"
   y="0px"
   viewBox="0 0 630.79997 281.10001"
   enable-background="new 0 0 841.9 595.3"
   xml:space="preserve"
   sodipodi:docname="ltx_logo_4c.svg"
   width="630.79999"
   height="281.10001"
   inkscape:version="1.1 (1:1.1+202105261517+ce6663b3b7)"
   xmlns:inkscape="http://www.inkscape.org/namespaces/inkscape"
   xmlns:sodipodi="http://sodipodi.sourceforge.net/DTD/sodipodi-0.dtd"
   xmlns="http://www.w3.org/2000/svg"
   xmlns:svg="http://www.w3.org/2000/svg"><defs
   id="defs4158" /><sodipodi:namedview
   id="namedview4156"
   pagecolor="#ffffff"
   bordercolor="#666666"
   borderopacity="1.0"
   inkscape:pageshadow="2"
   inkscape:pageopacity="0.0"
   inkscape:pagecheckerboard="0"
   showgrid="false"
   fit-margin-left="1"
   fit-margin-top="1"
   fit-margin-bottom="1"
   fit-margin-right="1"
   inkscape:zoom="1.4336619"
   inkscape:cx="296.09491"
   inkscape:cy="166.00846"
   inkscape:window-width="1920"
   inkscape:window-height="1015"
   inkscape:window-x="1920"
   inkscape:window-y="420"
   inkscape:window-maximized="1"
   inkscape:current-layer="Ebene_9_Kopie_2" />
<g
   id="g4149"
   transform="translate(-125,-131.5)">
	<linearGradient
   id="SVGID_1_"
   gradientUnits="userSpaceOnUse"
   x1="228.1405"
   y1="127.831"
   x2="228.1405"
   y2="424.84631">
		<stop
   offset="2.884620e-02"
   style="stop-color:#0095D4"
   id="stop4100" />
		<stop
   offset="1"
   style="stop-color:#005074"
   id="stop4102" />
	</linearGradient>
	<polygon
   fill="url(#SVGID_1_)"
   points="126,132.5 126,411.5 330.3,411.5 330.3,377.8 169.7,377.8 169.8,375.4 169.8,132.5 "
   id="polygon4105"
   style="fill:url(#SVGID_1_)" />
	<linearGradient
   id="SVGID_2_"
   gradientUnits="userSpaceOnUse"
   x1="252.46919"
   y1="127.831"
   x2="252.46919"
   y2="424.84631">
		<stop
   offset="2.884620e-02"
   style="stop-color:#0095D4"
   id="stop4107" />
		<stop
   offset="1"
   style="stop-color:#005074"
   id="stop4109" />
	</linearGradient>
	<polygon
   fill="url(#SVGID_2_)"
   points="174.6,372.9 330.3,372.9 330.3,331.8 219.2,331.8 219.2,132.5 174.6,132.5 "
   id="polygon4112"
   style="fill:url(#SVGID_2_)" />
	<linearGradient
   id="SVGID_3_"
   gradientUnits="userSpaceOnUse"
   x1="683.0329"
   y1="127.831"
   x2="683.0329"
   y2="424.84631">
		<stop
   offset="2.884620e-02"
   style="stop-color:#0095D4"
   id="stop4114" />
		<stop
   offset="1"
   style="stop-color:#005074"
   id="stop4116" />
	</linearGradient>
	<polygon
   fill="url(#SVGID_3_)"
   points="704.6,132.5 611.2,269.9 705.5,411.5 754.8,411.5 660.4,268.4 750.9,132.5 "
   id="polygon4119"
   style="fill:url(#SVGID_3_)" />
	<linearGradient
   id="SVGID_4_"
   gradientUnits="userSpaceOnUse"
   x1="477.1676"
   y1="127.831"
   x2="477.1676"
   y2="424.84631">
		<stop
   offset="2.884620e-02"
   style="stop-color:#0095D4"
   id="stop4121" />
		<stop
   offset="1"
   style="stop-color:#005074"
   id="stop4123" />
	</linearGradient>
	<polyline
   fill="url(#SVGID_4_)"
   points="608.3,265.6 698.7,132.5 646.8,132.5 606.2,199.1 565.9,132.5 513.1,132.5 459.9,132.5    255.6,132.5 255.6,169.1 544.2,169.1  "
   id="polyline4126"
   style="fill:url(#SVGID_4_)" />
	<linearGradient
   id="SVGID_5_"
   gradientUnits="userSpaceOnUse"
   x1="318.78601"
   y1="127.831"
   x2="318.78601"
   y2="424.84631">
		<stop
   offset="2.884620e-02"
   style="stop-color:#0095D4"
   id="stop4128" />
		<stop
   offset="1"
   style="stop-color:#005074"
   id="stop4130" />
	</linearGradient>
	<polygon
   fill="url(#SVGID_5_)"
   points="381.9,174 255.6,174 255.6,211.5 337.7,211.5 337.7,372.9 381.9,372.9 "
   id="polygon4133"
   style="fill:url(#SVGID_5_)" />
	<linearGradient
   id="SVGID_6_"
   gradientUnits="userSpaceOnUse"
   x1="471.54871"
   y1="127.831"
   x2="471.54871"
   y2="424.84631">
		<stop
   offset="2.884620e-02"
   style="stop-color:#0095D4"
   id="stop4135" />
		<stop
   offset="1"
   style="stop-color:#005074"
   id="stop4137" />
	</linearGradient>
	<path
   fill="url(#SVGID_6_)"
   d="M 541.5,174 H 386.8 v 201.4 c 0,0 0,2.4 0,2.4 h -49.1 v 33.7 H 431 v -200 h 81 l 38.4,58.2 -94.5,141.9 h 53.2 L 605.3,270 Z"
   id="path4140"
   style="fill:url(#SVGID_6_)" />
	<linearGradient
   id="SVGID_7_"
   gradientUnits="userSpaceOnUse"
   x1="607.34448"
   y1="127.831"
   x2="607.34448"
   y2="424.84631">
		<stop
   offset="2.884620e-02"
   style="stop-color:#0095D4"
   id="stop4142" />
		<stop
   offset="1"
   style="stop-color:#005074"
   id="stop4144" />
	</linearGradient>
	<polygon
   fill="url(#SVGID_7_)"
   points="604.6,339 648.8,411.5 699.7,411.5 608.3,274.3 515,411.5 559.9,411.5 "
   id="polygon4147"
   style="fill:url(#SVGID_7_)" />
</g>
<path
   fill="none"
   stroke="#010202"
   stroke-width="0.1"
   stroke-miterlimit="10"
   d="M 413.2,28.6"
   id="path4151" />
<path
   fill="none"
   stroke="#010202"
   stroke-width="0.1"
   stroke-miterlimit="10"
   d="M 440.5,69.4"
   id="path4153" />
</svg>
