<?xml version="1.0" encoding="UTF-8" standalone="no"?>
<!-- Generator: Adobe Illustrator 24.1.0, SVG Export Plug-In . SVG Version: 6.00 Build 0)  -->

<svg
   version="1.1"
   id="Layer_1"
   x="0px"
   y="0px"
   viewBox="0 0 218.99999 64.444749"
   xml:space="preserve"
   sodipodi:docname="Modelon_2018_Flat_RGB.svg"
   width="219"
   height="64.444748"
   inkscape:version="1.1 (1:1.1+202105261517+ce6663b3b7)"
   xmlns:inkscape="http://www.inkscape.org/namespaces/inkscape"
   xmlns:sodipodi="http://sodipodi.sourceforge.net/DTD/sodipodi-0.dtd"
   xmlns="http://www.w3.org/2000/svg"
   xmlns:svg="http://www.w3.org/2000/svg"><defs
   id="defs7676" /><sodipodi:namedview
   id="namedview7674"
   pagecolor="#ffffff"
   bordercolor="#666666"
   borderopacity="1.0"
   inkscape:pageshadow="2"
   inkscape:pageopacity="0.0"
   inkscape:pagecheckerboard="0"
   showgrid="false"
   fit-margin-left="1"
   fit-margin-top="1"
   fit-margin-bottom="1"
   fit-margin-right="1"
   inkscape:zoom="1.4336619"
   inkscape:cx="109.16102"
   inkscape:cy="32.085668"
   inkscape:window-width="1920"
   inkscape:window-height="1015"
   inkscape:window-x="1920"
   inkscape:window-y="420"
   inkscape:window-maximized="1"
   inkscape:current-layer="Layer_1" />
<style
   type="text/css"
   id="style7653">
	.st0{fill:#E36D00;}
	.st1{fill:#181716;}
</style>
<path
   class="st0"
   d="m 71.1,51.144749 c -0.3,1.6 -0.4,2.9 -0.3,3.9 -4,2.8 -7.3,4.8 -11.9,4.8 -9.3,0.1 -1,-19.6 -2.2,-25.6 -0.1,-0.7 -1,-0.5 -1.5,0 -5.2,6.5 -10.4,18.7 -16.9,25.3 -1.6,1.6 -3,2.4 -5,2.4 -6.3,0 -5.7,-8.1 -4.7,-12.5 2.1,-9.2 11.1,-32.1 10.6,-39.3 C 39.2,9.3447486 38.1,9.3447486 37.7,9.8447486 29.3,20.344749 7,63.044749 7,63.044749 l -6,0.4 c 0,0 26.2,-51.8 36.8,-59.9000004 4.5,-3.4 9.9,-4 10.9,2 1.9,11.5000004 -9.7,31.8000004 -11,45.2000004 -0.1,0.7 0.5,1.2 1,0.8 2,-2.1 11.2,-19.7 16.2,-23.5 4.5,-3.4 9.3,-3.8 9.9,4.8 0.4,5.7 -3.1,18.4 -2.1,20 1.3,2.1 3.8,0.6 6.6,-0.9 0.6,-0.2 1.2,-0.5 1.8,-0.8 z"
   id="path7655" />
<g
   id="g7669"
   transform="translate(-311.9,-265.85525)">
	<path
   class="st1"
   d="m 400.4,301.2 c 7.4,0 10.3,2.5 7.8,12 -2.3,8.7 -7.3,12.3 -14.8,12.3 -7.3,0 -10.6,-1.6 -7.9,-12.2 2.2,-8.5 7.5,-12.1 14.9,-12.1 z m -6.1,21.1 c 3,0 5.7,-1.7 7.6,-9 2,-7.4 0.7,-8.7 -2.6,-8.7 -3.1,0 -5.7,1.6 -7.6,8.9 -2.1,7.7 -0.6,8.8 2.6,8.8 z"
   id="path7657" />
	<path
   class="st1"
   d="m 431.6,292.4 c 0.5,-1.7 1.5,-1.7 6.2,-1.7 l -8.8,33.4 c -2.5,0.7 -6.1,1.4 -10.5,1.4 -6.1,0 -11.2,-1.2 -8.5,-11.3 2.4,-9.3 8.2,-13 14.3,-13 2.2,0 3.7,0.3 4.8,0.9 z m -3.4,12.7 c -0.8,-0.5 -1.6,-0.6 -3.1,-0.6 -3.1,0 -6.6,1.6 -8.6,9.3 -1.9,7 -0.2,8.3 3.1,8.3 1.6,0 3.1,-0.2 4.3,-0.7 z"
   id="path7659" />
	<path
   class="st1"
   d="m 457.2,308.7 c -0.5,2.1 -1.4,4.4 -2.4,6.1 -5,0.6 -11.5,0.8 -14.9,0.8 -1,5 0.6,6.3 4.9,6.3 2.8,0 5.8,-0.6 8.4,-1.4 0.2,0.7 0,1.8 -0.2,2.6 -0.4,1.5 -5.1,2.6 -10.4,2.6 -6.6,0 -10.8,-1.8 -8.4,-10.9 3.1,-11.7 9.8,-13.4 16,-13.4 5.9,-0.2 8.3,2.3 7,7.3 z m -16.5,3.8 c 2.7,0 7.1,0 9.7,-0.5 0.5,-0.8 0.9,-1.9 1.1,-2.8 0.8,-3.4 0.2,-4.6 -2.8,-4.6 -2.9,-0.1 -5.9,1.6 -8,7.9 z"
   id="path7661" />
	<path
   class="st1"
   d="m 461.4,324.3 c -0.2,0.8 -0.2,0.8 -5.9,0.8 l 8.6,-32.6 c 0.5,-1.7 1.6,-1.7 6.2,-1.7 z"
   id="path7663" />
	<path
   class="st1"
   d="m 481.6,301.2 c 7.4,0 10.3,2.5 7.8,12 -2.3,8.7 -7.3,12.3 -14.8,12.3 -7.3,0 -10.6,-1.6 -7.9,-12.2 2.3,-8.5 7.5,-12.1 14.9,-12.1 z m -6,21.1 c 3,0 5.7,-1.7 7.6,-9 2,-7.4 0.7,-8.7 -2.6,-8.7 -3.1,0 -5.7,1.6 -7.6,8.9 -2.1,7.7 -0.7,8.8 2.6,8.8 z"
   id="path7665" />
	<path
   class="st1"
   d="m 494.5,302.8 c 3,-0.8 7.8,-1.6 11.6,-1.6 7.4,0 9.5,1.7 8.3,6.3 l -4.5,16.8 c -0.2,0.8 -0.3,0.8 -6.1,0.8 l 4.3,-16.5 c 0.8,-2.9 0.4,-4.1 -3.2,-4.1 -1.5,0 -3.7,0.3 -5.4,0.8 l -5,18.9 c -0.2,0.8 -0.3,0.8 -5.9,0.8 z"
   id="path7667" />
</g>
<polygon
   class="st0"
   points="511.6,325 512.6,321 529.9,321.9 529.3,324.1 "
   id="polygon7671"
   transform="translate(-311.9,-265.85525)" />
</svg>
